# xmcd CD database file generated by Grip 2.98.2
# 
# Track frame offsets:
#       150
#       21105
#       40300
#       74587
#       92722
#       113422
#       131990
#       148770
#       163150
#       183815
#       199557
#       250742
# 
# Disc length: 3563 secs
# 
# Revision: 2
# Processed by: cddbd v1.4PL0 Copyright (c) Steve Scherf et al.
# Submitted via: Grip 2.98.2
# 
DISCID=a70de90c
DTITLE=Trey Anastasio - Trey Anastasio
DYEAR=2002
DGENRE=Blues
TTITLE0=Alive Again
TTITLE1=Cayman Review
TTITLE2=Push on 'til the Day
TTITLE3=Night speaks to a woman
TTITLE4=Flock of Words
TTITLE5=Money, Love and Change
TTITLE6=Drifting
TTITLE7=At the Gazebo
TTITLE8=Mr. Completely
TTITLE9=Ray Dawn Balloon
TTITLE10=Last Tube
TTITLE11=Ether Sunday
EXTD=
EXTT0=
EXTT1=
EXTT2=
EXTT3=
EXTT4=
EXTT5=
EXTT6=
EXTT7=
EXTT8=
EXTT9=
EXTT10=
EXTT11=
PLAYORDER=
